<?xml version="1.0" encoding="utf-8"?>
<!-- Generator: Adobe Illustrator 18.1.1, SVG Export Plug-In . SVG Version: 6.00 Build 0)  -->
<!DOCTYPE svg PUBLIC "-//W3C//DTD SVG 1.1//EN" "http://www.w3.org/Graphics/SVG/1.1/DTD/svg11.dtd">
<svg version="1.1" id="Layer_1" xmlns="http://www.w3.org/2000/svg" xmlns:xlink="http://www.w3.org/1999/xlink" x="0px" y="0px"
	 viewBox="0 0 720 576" enable-background="new 0 0 720 576" xml:space="preserve">
<image overflow="visible" width="250" height="250" xlink:href="../../photo.png"  transform="matrix(2.296 0 0 2.296 -783.4858 31.1309)">
</image>
<path fill="#6E6296" d="M612,294.9l-33.5-9.3l-80.4-6.9c-1.1-7.4,139.4-130.8,139.4-130.8l-183.7,2.3l20.5-26.9l-49.1,9.2l30.4-60.3
	l-95.8,35.9l-12.2-19l-8.2,16.1l-27.8-26l-2.1,25.3L192.4,3.1l9.2,155.7c-0.6,0.6-1.1,1-1.4,1.2c-1.1,1-2.8,2.7-4.9,4.9L121.9,126
	l-15.8-10.6l3.8,19.1l-27.4,2.7l20.2,20L89,170.8l22.4,10l34,68.8c-2.4,7.2-4.6,14.8-6.4,22.7c-7.5,33.6-7.5,66.9-1.1,97.6
	c-10.9,7.3-18,24.2-19.9,43.7c-3.7,38.5,20.2,62.2,37.6,67.3c1.3,4.6,3.4,11.1,5,13.7c1.8,3,10.1,10.2,10.1,10.2l4.3-9l12.5,14
	l5.4-15.3l14.7,5.6l-9.2-22.5c0.1-0.1,0.1,0,0.1-0.1c15.4,13.5,33,24.1,52.6,31c7.2,7.1,16.3,15.8,21.2,19.2
	c6.1,4.3,26.4,13.6,26.4,13.6l13.6-23.9l0,0c7.2-0.3,14.3-1.1,21.4-2.4c1.5,7.8,3.3,16.3,5.5,23.5c6.8,22,16.7,26.8,16.7,26.8
	l0.3-0.3c3.8,7,15.9,10.1,44.2,6c17.5-2.5,47.9-27.4,48.3-67.6c0.2-17.3-1.1-35.9-5-51.2c18.7-20.7,33.9-45.6,43.9-73.6l96.8-39.7
	l18.3,3.3l0.7-19.8l23.3-8.7l-24-11L612,294.9z M368.5,505.2c0,0.1,0,0.1,0,0.2l-0.2-0.1C368.4,505.2,368.5,505.2,368.5,505.2z"/>
<path fill="#FFFFFF" d="M188,274.5c0,151.3,155.5,197.4,241.7,71.2C370.4,418.8,186.8,322.8,188,274.5z"/>
<path fill="#F58879" d="M246.9,199.7c-56.2,22.3-45.8,85.1,13,90.7C259.6,287.9,250.2,229,246.9,199.7z"/>
<path fill="#F58879" d="M427.5,267.8c14,58.8-43.4,86.4-81.7,41.4C348,308,401.7,281.9,427.5,267.8z"/>
</svg>
