<?xml version="1.0" encoding="utf-8"?>
<!-- Generator: Adobe Illustrator 18.1.1, SVG Export Plug-In . SVG Version: 6.00 Build 0)  -->
<!DOCTYPE svg PUBLIC "-//W3C//DTD SVG 1.1//EN" "http://www.w3.org/Graphics/SVG/1.1/DTD/svg11.dtd">
<svg version="1.1" id="Layer_1" xmlns="http://www.w3.org/2000/svg" xmlns:xlink="http://www.w3.org/1999/xlink" x="0px" y="0px"
	 viewBox="0 0 720 576" enable-background="new 0 0 720 576" xml:space="preserve">
<g>
	<path fill="#896C91" d="M543.1,339c2.6-13.7,4-27.8,4-42.4c0-15.4-1.5-30.3-4.5-44.7c26.6-2.5,47.3-24.7,47.3-52.1
		c0-28.9-23.4-52.3-52.3-52.3c-10,0-19.5,2.9-27.5,7.8c20.1-16,33.1-40.6,33.1-68.3c0-48.1-39-87.2-87.2-87.2
		c-40.4,0-74.4,27.7-84.2,65c-4.3-9.7-14.1-16.6-25.7-16.6c-15.5,0-28.1,12.5-28.1,28.1c0,4.3,1.1,8.3,2.6,12
		c-5.5,0.6-10.9,1.4-16.3,2.5c1.5-4.6,2.3-9.4,2.3-14.4c0-10.5-3.5-19.8-9.4-27.5c6.9-2.9,11.7-9.7,11.7-17.5
		c0-10.5-8.5-19.1-19.1-19.1c-10.6,0-19.1,8.5-19.1,19.1c0,0.3,0.2,0.6,0.2,1.1c-3.1-0.6-6.3-1.1-9.5-1.1
		c-24.9,0-45.2,20.3-45.2,45.2c0,1.4,0.2,2.6,0.2,3.8c-11.7-6-24.7-9.4-38.9-9.4c-46.3,0-67.8,36.6-67.8,81.6
		c0,21.4,4.9,40.7,14.9,55.3c-34.3,4.6-60.6,32.4-60.6,66.3c0,36.9,31.7,66.9,70.6,66.9c1.5,0,3.1-0.2,4.8-0.2
		c4.8,22,12.9,42.6,24,61.3c-8.6,11.7-13.8,26-13.8,41.7c0,38.7,31.4,70.3,70.3,70.3c12.1,0,23.7-3.1,33.7-8.6
		c8.1,11.2,21.5,18.6,36.6,18.6c3.7,0,7.2-0.5,10.8-1.4c7.5,30.6,35,53.2,68.1,53.2c38.7,0,70.3-31.4,70.3-70.3
		c0-7.5-1.2-14.9-3.5-21.7c16.9-8.6,32.3-19.5,46-32.4c12.9,16.6,32.9,27.2,55.3,27.2c38.7,0,70.3-31.4,70.3-70.3
		C607.3,372.2,579.1,342,543.1,339z M501.3,162.4c-0.2-0.2-0.2-0.3-0.5-0.5c1.1-0.6,2-1.2,3.1-1.8C503,160.9,502,161.6,501.3,162.4z
		"/>
	<circle fill="#896C91" cx="627.2" cy="121.8" r="28.1"/>
	<circle fill="#896C91" cx="655.2" cy="366.9" r="28.1"/>
</g>
<circle fill="#2C2829" cx="328.5" cy="301.4" r="178.8"/>
<path fill="#EDECED" d="M158.2,218.4c0,0-53,119.1,21.4,170.8c31.7,22,58-48.7,58-48.7s-45.3-64.3-55.2-81.8
	C171.5,239.3,158.2,218.4,158.2,218.4z"/>
<path fill="#EDECED" d="M431.6,178.4c0,0,63.8,161.7-31.2,211.4C334,424.4,286.4,342,286.4,342s45.2-38,58.1-52.6
	C368,262.9,431.6,178.4,431.6,178.4z"/>
<ellipse fill="#2C2829" cx="320.2" cy="332.6" rx="1.5" ry="8.8"/>
<ellipse fill="#2C2829" cx="218.4" cy="336.6" rx="1.4" ry="6.6"/>
<g>
	<path fill="#936C7C" d="M227.7,443.6c-2.3-0.5-3.5-0.6-3.5-0.6s0.6,0.3,1.7,0.9v-0.2h1.8V443.6z"/>
	<path fill="#936C7C" d="M286.5,442.2c-21.2,4.3-39,3.8-50.1,2.6l-0.9,3.7c14.4,6.5,40.4,16,65.2,13.8c30.6-2.6,48.3-21.7,57.2-35.5
		l-2.3-9.2C341.7,424.4,314.7,436.5,286.5,442.2z"/>
	<path fill="#EDECED" d="M231.2,466.2l4.3-17.5c-4.5-2-7.8-3.7-9.7-4.8L231.2,466.2z"/>
	<path fill="#EDECED" d="M227.7,443.6h-1.8v0.2c1.8,1.1,5.2,2.6,9.7,4.8l0.9-3.7C232.7,444.5,229.7,444,227.7,443.6z"/>
	<path fill="#EDECED" d="M365.4,412.5c0,0-2.3,6.3-7.5,14.3l2,8.1L365.4,412.5z"/>
	<path fill="#EDECED" d="M355.7,417.6l2.3,9.2c5.2-8,7.5-14.3,7.5-14.3S361.7,414.5,355.7,417.6z"/>
</g>
</svg>
