<?xml version="1.0" encoding="utf-8"?>
<!-- Generator: Adobe Illustrator 18.1.1, SVG Export Plug-In . SVG Version: 6.00 Build 0)  -->
<!DOCTYPE svg PUBLIC "-//W3C//DTD SVG 1.1//EN" "http://www.w3.org/Graphics/SVG/1.1/DTD/svg11.dtd">
<svg version="1.1" id="Layer_1" xmlns="http://www.w3.org/2000/svg" xmlns:xlink="http://www.w3.org/1999/xlink" x="0px" y="0px"
	 viewBox="0 0 720 576" enable-background="new 0 0 720 576" xml:space="preserve">
<g>
	<path fill="#756C89" d="M471.1,463.4c-8.2-17.8-14.2-36.3-20.6-54.8c-6.4-18.3-26-28.4-39.3-20.4c-22.9,13.7-48.3,12.6-73,15.6
		c-0.7,5.5-18.4,20.9-20.9,22.6c0-0.1,0-0.1,0-0.2c-20.9,16.8-21.9,39.9-19.9,63.7c0.5,5.2,1.4,12.5,7,13.5
		c4.9,0.9,5.5-6.6,7.4-10.4c7.7-15.9,15.2-31.7,34.4-36.6c5.2-1.3,11.5-5.2,9.5,5.6c-0.9,3.1-7,10.3-8.5,13
		c-8.8,16.4-4,51.9,8.8,65.3c3,3.1,6.2,2.4,7-0.6c0.6-2.1,18.2-49.9,35.6-62.1c16.4-9,22.3-5.8,22.6,12.3c0,1.7-5.7,41.2-0.3,56.7
		c3.6,10.4,9.8,10.2,15.3,1.7c6.5-10,15.2-18.7,18.2-30.7C462.9,506.4,473.7,469.1,471.1,463.4z"/>
	<path fill="#534A58" d="M328.7,418.4C328.6,418.4,328.6,418.4,328.7,418.4c-0.1,0.1-0.2,0.1-0.2,0.2
		C328.4,418.5,328.7,418.4,328.7,418.4z"/>
	<path fill="#534A58" d="M328.4,418.5c0,0,0.1-0.1,0.2-0.1c0,0,0.1-0.1,0.1-0.1C328.7,418.4,328.4,418.5,328.4,418.5z"/>
	<path fill="#534A58" d="M195.4,281.8c-3.6-19.9-15-28-37.6-25.9c-12.8,1.2-24.4-1.2-35.7-7.4c-7.3-4-15.7-6-24.3-4.8
		C94.4,244,82.3,256,82.3,256c-13.3,6.1-23.1,16.6-32.7,27.1c-1.6,1.8-2,5.6-1.6,8.3c1,7.1-18.9,28.4-20.6,28.5
		c0,4.2,16.7,37.3,32.3,43.3c-0.4-6.7,0.4-12.5,2.1-18.2c15.4,8.7,14.3-19.5,19.1-19.5c5.6,0,13,2.3,13.8,7.1
		c2.7,16,18.8,20.4,25.7,32.7c2.9,5.1,8.7,5.9,10.2-2.5c1.3-7.4,8.9-30.4,11.4-32.6c3.1-1.5,5.4-3.8,7-6.8c8.5-3,15.5-9,24.9-10.3
		C186.2,311.5,197.7,294.1,195.4,281.8z"/>
	<path fill="#99657C" d="M363.8,339.3c-3-14.4-7.4-23.1-18.4-21.7c-8.5,1.1-16.5,0.7-24.9-0.5c-7.5-1.1-16.2-3.6-20.5,6.9
		c-1.7,4.2-3.7,9.7-9.1,9.4c-5.8-0.3-8-6.2-9.4-10.8c-2.9-9.5-10.9-9.3-18-10.9c-3.7-0.8-5.3,2.1-6.4,4.9
		c-3.1,7.9,0.7,13.9,5.6,19.5c0.6,0.6,0.9,1.7,1.6,1.9c6.7,2.5,6.4,8.9,7,13.5c20.4-10,11.6,15.2,21.1,16.3
		c15.3-13.7,13.5,8.3,20.9,10.8c0.5-0.4,1.3-0.7,1.7-1.4c3.2-4.5-1.1-14.1,7.2-14.3c6.6-0.1,6.4,9.1,10.4,13.2
		c0.3,0.3,0.5,0.7,0.6,1.1c2.2,10,7.8,9.5,14.9,5.1c2.1-1.3,4.5-2.4,6.9-3.1c36.8-11,48.6-41.5,58.7-75.1
		C393.2,310.3,371.4,311,363.8,339.3z"/>
	<path fill="#FDFDFD" d="M473.8,455.2c-0.1,0.3,0.6,1,1.1,1.5c0.1,0.1,0.1,0.2,0.2,0.2v0c0.5-0.7,1.1-1.4,1.6-2.1
		C475.7,454.4,474.5,453.4,473.8,455.2z"/>
	<path fill="#534A58" d="M475,456.7c0.1,0.1,0.1,0.2,0.2,0.2l0,0v0C475.1,456.9,475.1,456.8,475,456.7z"/>
</g>
<g>
	<path fill="none" d="M525.2,127.4l0-0.1c-0.2,0-0.4,0.1-0.7,0.1C524.8,127.4,525,127.4,525.2,127.4z"/>
	<path fill="none" d="M520.7,436.2c0.4,0.4,0.9,0.7,1.4,0.8c0.1,0,0.1,0,0.2,0c0.4-0.1,0.9-0.6,1.4-0.9c0,0,0,0,0,0c0,0,0,0,0,0
		c-0.1-0.1-0.2-0.2-0.4-0.3c0.1-0.1,0.2-0.2,0.4-0.3c0,0,0,0,0,0c0,0,0,0,0,0c-0.5-0.4-1-1.1-1.6-1.2c-0.1,0-0.3,0-0.4,0.1
		c-0.4,0.2-0.9,0.6-1.4,0.8l0,0h0c0.1,0.1,0.3,0.2,0.4,0.3c-0.1,0.1-0.3,0.2-0.4,0.3l0,0h0C520.4,436,520.6,436.1,520.7,436.2z"/>
	<path fill="#534A58" d="M581.1,117.3c-7.2,0.6-142.1,6.7-184.1-0.4c-13-1.9-48.3,2.2-60.3-7.3l-50.3-88.3c-1.5,0.1-3,1.6-4.7,3.4
		C278,36.1,274,47.5,270.8,59c-6.6,23.9-12.7,47.9-19,71.8c-3.3,12.6-3.7,26-11,37.3c-6.8-1.4-34.2-8.3-39.5-7.4
		c-4.4,0.7,18.8,54.7,6.2,64c-1.8-3.3-7.1-5.8-8.3-6c-0.9-0.1,7.9,24.2,11.1,34c-9.8-6.7-4.3,9.2,2.3,17.9
		c-0.3,6.6-2.4,15.9,6.1,16.6c10.7,0.9,11.7,7.9,13.6,14.8c4.6,16.6-1.4,23.4,11.7,13.3c-5.4,11.9,1.5,16.7,6.9,28.5
		c8.9,19.6,23.8,32.7,41.2,44.1c13.2,8.6,28.1,13,42.4,19.2c24.8-3,50.1-1.9,73-15.6c13.3-8,32.9,2.2,39.3,20.4
		c6.5,18.4,26.1,56.6,23.6,48.8c-0.1-0.1,74.9,27.8,78.1,23.8c2.7-3.4-37.8-91.7-41.8-110.5c-0.7-3.2,74-51.5,72.6-56.3
		c-1.1-3.9-34.1-4.6-47.8-6.6c21.9-14.5,42.5-28.1,63.1-41.7c15.6-9.3,32.8-16.1,46-29.2c5.2-7.8-111.4-11-115.4-13.8
		c16.2-17.4,130.4-113,130.4-115.5C645.1,111.1,583.1,117.2,581.1,117.3z M249.2,271.9c-0.1,0.8-2.6,0.2-6-1.2
		c-0.9-0.1-1.8-0.5-2.8-0.8c-2.9-1-5.2-2.8-7.3-4.7c-5.2-3.4-10.3-7.7-12.6-12c-0.4-0.9,5.1-51.2,14.4-51
		C234.9,202.2,249.8,268.3,249.2,271.9z M413.8,304.8c-10.1,33.1-21.9,63.2-58.7,74.1c-2.4,0.7-4.8,1.7-6.9,3
		c-7.1,4.3-12.7,4.8-14.9-5.1c-0.1-0.4-0.3-0.8-0.6-1.1c-4.1-4-3.9-13.1-10.4-13c-8.3,0.1-4.1,9.6-7.2,14.1c-0.5,0.6-1.3,1-1.7,1.4
		c-7.5-2.4-5.6-24.1-20.9-10.6c-9.5-1-0.7-26-21.1-16.1c-0.6-4.5-0.3-10.8-7-13.3c-0.7-0.3-1-1.3-1.6-1.9c-3.7-4.2-6.8-8.7-6.7-14
		c0-1.8,0.3-3.7,1.1-5.8c1.1-2.8,2.7-5.6,6.4-4.8c7.1,1.6,15.1,1.4,18,10.8c1.4,4.6,3.7,10.4,9.4,10.7c5.4,0.3,7.4-5.1,9.1-9.3
		c4.3-10.4,13.1-7.9,20.5-6.9c8.4,1.2,16.3,1.5,24.9,0.5c11-1.3,15.4,7.2,18.4,21.4c7.6-27.9,29.4-28.6,50-34.7
		c-0.1,0.2-0.1,0.4-0.2,0.7C413.7,304.9,413.7,304.8,413.8,304.8z M392.2,296.6c-14.1,5.8-99.9-1.8-100.3-20.2
		c-0.2-8.8,121.4-62.5,121.4-62.5C431.8,233.4,399,293.8,392.2,296.6z"/>
</g>
<g>
	<path fill="#FFFFFF" d="M292.5,276.9c0.4,18.5,86.2,26,100.3,20.2c6.8-2.8,39.6-63.2,21.1-82.7
		C413.9,214.4,292.3,268.1,292.5,276.9z"/>
	<path fill="#FFFFFF" d="M234.9,202.2c-9.3-0.2-14.8,50.1-14.4,51c2.3,4.3,7.3,8.6,12.6,12c2.2,1.9,4.4,3.7,7.3,4.7
		c1,0.3,1.9,0.7,2.8,0.8c3.4,1.5,5.9,2,6,1.2"/>
</g>
</svg>
