<?xml version="1.0" encoding="utf-8"?>
<!-- Generator: Adobe Illustrator 18.1.1, SVG Export Plug-In . SVG Version: 6.00 Build 0)  -->
<!DOCTYPE svg PUBLIC "-//W3C//DTD SVG 1.1//EN" "http://www.w3.org/Graphics/SVG/1.1/DTD/svg11.dtd">
<svg version="1.1" id="Layer_1" xmlns="http://www.w3.org/2000/svg" xmlns:xlink="http://www.w3.org/1999/xlink" x="0px" y="0px"
	 viewBox="0 0 576 792" enable-background="new 0 0 576 792" xml:space="preserve">
<g>
	<path fill="#A2BBBE" d="M210.6,450.6c0,0,31,212.5,23.4,259.9c-6.4,40,138.4,13.7,136-27.3c-4.7-81.4-100.5-251.8-105.5-249.2
		C259.3,436.8,219.5,439.4,210.6,450.6z"/>
	<g>
		<path fill="#49556C" d="M347,711.1c0,0,0.2-1.3,0.4-3.4c0.1-1.1,0.3-2.4,0.4-4c0.1-1.5,0.3-3.3,0.5-5.1c0.1-1.9,0.2-3.9,0.4-6.1
			c0-2.2,0.1-4.5,0.1-6.8c0-2.4,0-4.8-0.1-7.3c-0.1-2.5-0.2-5-0.4-7.5c-0.1-1.3-0.2-2.5-0.4-3.8c-0.1-1.3-0.3-2.5-0.4-3.7
			c-0.2-1.2-0.3-2.5-0.5-3.7c-0.2-1.2-0.4-2.4-0.6-3.6c-0.2-1.2-0.5-2.3-0.7-3.4c-0.2-1.1-0.4-2.2-0.7-3.3c-0.3-1.1-0.5-2.1-0.7-3.1
			c-0.3-1-0.5-1.9-0.8-2.8c-0.5-1.8-1.1-3.5-1.5-4.9c-0.5-1.5-1-2.7-1.3-3.8c-0.8-2.1-1.3-3.2-1.3-3.2s0.5,1.2,1.3,3.2
			c0.4,1,0.8,2.3,1.4,3.7c0.5,1.5,1,3.1,1.6,4.9c0.3,0.9,0.5,1.9,0.8,2.8c0.3,1,0.5,2,0.8,3.1c0.3,1.1,0.5,2.1,0.8,3.3
			c0.2,1.1,0.5,2.2,0.7,3.4c0.2,1.2,0.4,2.4,0.6,3.6c0.2,1.2,0.4,2.4,0.6,3.7c0.2,1.2,0.3,2.5,0.5,3.7c0.1,1.3,0.3,2.5,0.4,3.8
			c0.2,2.5,0.4,5,0.5,7.5c0.2,2.5,0.2,4.9,0.2,7.3c0,2.4,0,4.7-0.1,6.8c-0.1,2.2-0.2,4.2-0.3,6.1c-0.1,1.9-0.3,3.6-0.4,5.2
			c-0.1,1.5-0.3,2.9-0.4,4c-0.2,2.2-0.4,3.5-0.4,3.5L347,711.1z"/>
	</g>
	<g>
		<path fill="#49556C" d="M300.3,727.3c0,0,0.2-1.3,0.4-3.6c0.1-1.1,0.3-2.5,0.4-4.1c0.1-1.6,0.3-3.4,0.4-5.3c0.1-2,0.2-4.1,0.3-6.3
			c0-2.2,0.1-4.6,0-7.1c-0.1-2.5-0.1-5-0.3-7.6c-0.1-2.6-0.4-5.2-0.7-7.8c-0.1-1.3-0.3-2.6-0.5-3.9c-0.2-1.3-0.3-2.6-0.6-3.8
			c-0.2-1.3-0.4-2.5-0.6-3.8c-0.2-1.2-0.5-2.5-0.7-3.7c-0.2-1.2-0.5-2.4-0.8-3.5c-0.3-1.2-0.5-2.3-0.8-3.4c-0.3-1.1-0.6-2.2-0.8-3.2
			c-0.3-1-0.6-2-0.8-2.9c-0.5-1.9-1.1-3.6-1.6-5.1c-0.5-1.5-1-2.8-1.4-3.9c-0.8-2.1-1.3-3.4-1.3-3.4s0.5,1.2,1.4,3.3
			c0.4,1.1,0.9,2.4,1.4,3.9c0.5,1.5,1.1,3.2,1.7,5.1c0.3,0.9,0.6,1.9,0.9,2.9c0.3,1,0.6,2.1,0.9,3.2c0.3,1.1,0.6,2.2,0.8,3.4
			c0.3,1.2,0.6,2.3,0.8,3.5c0.2,1.2,0.5,2.4,0.7,3.7c0.2,1.2,0.4,2.5,0.7,3.8c0.2,1.3,0.4,2.6,0.6,3.9c0.2,1.3,0.4,2.6,0.5,3.9
			c0.3,2.6,0.6,5.2,0.7,7.8c0.2,2.6,0.3,5.1,0.4,7.6c0.1,2.5,0.1,4.8,0.1,7.1c-0.1,2.3-0.1,4.4-0.2,6.4c-0.1,2-0.2,3.8-0.4,5.4
			c-0.1,1.6-0.3,3-0.4,4.1c-0.2,2.3-0.4,3.6-0.4,3.6L300.3,727.3z"/>
	</g>
</g>
<path fill="#76828D" d="M138.6,276c-7.8,0.1-13.3-7.6-10.7-14.9c13.8-39.8,62.5-147.4,197-189.5c77.4-24.2,187.7-11,240.4-2.3
	c10.1,1.7,12.9,14.9,4.3,20.5c-25,16.3-62.8,46.4-88.9,91.9c-17.6,30.7-19.7,63.7-19.4,80.6c0.1,6.3-4.9,11.4-11.2,11.4L138.6,276z"
	/>
<ellipse transform="matrix(-0.9654 -0.2606 0.2606 -0.9654 509.9644 716.5068)" fill="#A2BBBE" cx="302.5" cy="324.4" rx="185.6" ry="158.9"/>
<path fill="#FABA96" d="M402.3,306.5c-5.8,13.1-1.1,24.1,12.4,30s33,5.4,36.3-8.5c2-8.4-6-21-14.9-29.2
	C425.2,288.9,408.1,293.4,402.3,306.5z"/>
<path fill="#88A2A5" d="M69.7,643.6c-23.6-75.9,38.7-246.8,121-272.4c35-10.9,34,8,46,39.7c16.3,42.7,40.1,108.3,53.6,153.9
	c13.9,47.4,25.6,130.5-61.7,141.8C143,717.6,93.2,718.9,69.7,643.6"/>
<path fill="#A2BBBE" d="M52.6,648.3c-23.6-75.9,38.7-246.8,121-272.4c82.2-25.6,80,94.7,100.5,156.6c15,44.9,41.5,146.4-40.8,172
	C151,730.2,76,723.6,52.6,648.3"/>
<ellipse transform="matrix(-0.9839 -0.1785 0.1785 -0.9839 808.9653 704.6135)" fill="#49494A" cx="436.2" cy="315.9" rx="1.7" ry="9.6"/>
<path fill="none" stroke="#666766" stroke-width="0.25" stroke-miterlimit="10" d="M173.7,426.8"/>
<path fill="none" stroke="#666766" stroke-width="0.25" stroke-miterlimit="10" d="M447.6,433"/>
<path fill="#4F514F" d="M464.4,369.6c1,2.2,1.9,3.6,2.3,2.3c0.4-0.4-0.5-2.7-1.4-4.9c-1-1.3-1.9-3.1-2.3-2.3
	C462.7,365.1,463.5,367.4,464.4,369.6"/>
<ellipse transform="matrix(-1 -4.128834e-03 4.128834e-03 -1 840.8948 607.0783)" fill="#FCDFD2" cx="421.1" cy="302.7" rx="8.1" ry="8.1"/>
<g>
	<g>
		<path fill="#D0DEDF" d="M185.6,382.5c1.5,0.7,25.2,15.5,45.1,35.7c-18.6,0.7-34.4,1.8-45.2,3.4
			C179.1,398.3,178.9,379.5,185.6,382.5z"/>
		<path fill="#D0DEDF" d="M261.1,477.9c0.1,0,0.2,0,0.3,0.1c7.1,30.7,13.7,53.6,13.7,53.6s-53.3-35-73.2-69.5
			c-2.8-4.9-5.4-10.1-7.6-15.3C213.7,460.4,236.2,471.2,261.1,477.9z"/>
		<path fill="#D0DEDF" d="M194.3,446.7c-8.7-6.1-16.8-12.9-24.2-20.1c0.1-2,5.8-3.7,15.4-5.1c10.8-1.5,26.6-2.7,45.2-3.4
			c73-2.7,189.2,1.5,216.8,14.8c-42.6,44.7-114.3,64.3-186.2,45c-0.1,0-0.2,0-0.3-0.1C236.2,471.2,213.7,460.4,194.3,446.7z"/>
	</g>
</g>
<path fill="#FABA96" d="M271.5,518.7c-4.9-0.5-29.8,38.8-24.7,78.3s18.5,70.2,30,68.7s16.7-34.6,11.6-74.1
	C283.4,552.2,271.5,518.7,271.5,518.7z"/>
<g>
	<path fill="#88A2A5" d="M142.9,457.9c0,0-53.9,198.1-76.4,228.1c-19,25.4,116.4,30.1,116.4,30.1c26.4-58.1,13.9-259.2,9.4-259.2
		C187.6,456.8,153.1,453.3,142.9,457.9z"/>
</g>
<g>
	<path fill="#A2BBBE" d="M127.8,427.2c0,0-85.6,242.3-120,288.2C-21.3,754.2,146.7,807,167,762.4c40.4-88.8,33.9-322.6,27.1-322.6
		C187,439.7,143.4,420.3,127.8,427.2z"/>
	<g>
		<path fill="#49556C" d="M127.1,779.1c0,0,0.9-1.2,2.4-3.4c0.7-1.1,1.7-2.4,2.7-3.9c1-1.5,2.1-3.3,3.3-5.2c1.2-1.9,2.4-4,3.8-6.3
			c1.3-2.3,2.6-4.6,3.9-7.1c1.3-2.5,2.7-5.1,3.9-7.8c1.3-2.7,2.5-5.4,3.7-8.2c0.6-1.4,1.1-2.8,1.7-4.2c0.6-1.4,1.1-2.8,1.6-4.2
			c0.5-1.4,1-2.8,1.5-4.2c0.5-1.4,0.9-2.8,1.3-4.1c0.5-1.3,0.8-2.7,1.2-4c0.4-1.3,0.8-2.6,1.1-3.8c0.3-1.3,0.6-2.5,0.9-3.7
			c0.3-1.2,0.5-2.3,0.8-3.5c0.5-2.2,0.8-4.3,1.2-6.1c0.3-1.8,0.5-3.4,0.7-4.7c0.3-2.6,0.5-4.1,0.5-4.1s-0.2,1.5-0.4,4.1
			c-0.2,1.3-0.4,2.9-0.6,4.7c-0.3,1.8-0.6,3.9-1.1,6.1c-0.2,1.1-0.5,2.3-0.7,3.5c-0.3,1.2-0.6,2.4-0.9,3.7c-0.3,1.3-0.6,2.6-1,3.9
			c-0.4,1.3-0.7,2.7-1.2,4c-0.4,1.4-0.9,2.7-1.3,4.1c-0.5,1.4-1,2.8-1.5,4.2c-0.5,1.4-1,2.8-1.6,4.2c-0.6,1.4-1.1,2.8-1.7,4.2
			c-1.2,2.8-2.4,5.6-3.6,8.3c-1.2,2.7-2.6,5.3-3.9,7.9c-1.3,2.5-2.7,4.9-3.9,7.2c-1.3,2.2-2.6,4.4-3.7,6.3c-1.2,1.9-2.3,3.7-3.3,5.2
			c-1,1.6-1.9,2.9-2.6,4c-1.5,2.2-2.3,3.4-2.3,3.4L127.1,779.1z"/>
	</g>
	<g>
		<path fill="#49556C" d="M68.6,770.2c0,0,0.9-1.3,2.4-3.6c0.8-1.1,1.8-2.5,2.7-4.1c1-1.6,2.2-3.4,3.4-5.4c1.2-2,2.5-4.2,3.8-6.6
			c1.2-2.4,2.7-4.8,3.9-7.5c0.6-1.3,1.3-2.7,2-4c0.7-1.4,1.3-2.8,1.9-4.2c1.3-2.8,2.4-5.7,3.6-8.6c0.6-1.5,1.1-2.9,1.7-4.4
			c0.3-0.7,0.5-1.5,0.8-2.2c0.2-0.7,0.5-1.5,0.7-2.2c0.5-1.5,1-2.9,1.4-4.3c0.4-1.4,0.9-2.9,1.3-4.3c0.4-1.4,0.8-2.8,1.2-4.2
			c0.4-1.4,0.7-2.7,1-4c0.3-1.3,0.6-2.6,0.9-3.8c0.3-1.2,0.5-2.4,0.7-3.6c0.5-2.3,0.8-4.4,1.1-6.3c0.3-1.9,0.5-3.5,0.7-4.9
			c0.3-2.7,0.5-4.3,0.5-4.3s-0.2,1.6-0.4,4.3c-0.2,1.4-0.4,3-0.7,4.9c-0.3,1.9-0.6,4-1.1,6.3c-0.2,1.2-0.5,2.4-0.7,3.6
			c-0.3,1.2-0.6,2.5-0.9,3.8c-0.3,1.3-0.6,2.7-1,4c-0.4,1.4-0.7,2.8-1.1,4.2c-0.4,1.4-0.8,2.8-1.3,4.3c-0.4,1.5-0.9,2.9-1.4,4.4
			c-0.2,0.7-0.5,1.5-0.7,2.2c-0.3,0.7-0.5,1.5-0.8,2.2c-0.5,1.5-1,3-1.6,4.4c-1.2,2.9-2.3,5.9-3.6,8.7c-0.6,1.4-1.2,2.8-1.9,4.2
			c-0.7,1.4-1.3,2.7-1.9,4c-1.3,2.7-2.6,5.2-3.9,7.6c-1.3,2.4-2.6,4.6-3.7,6.6c-1.2,2-2.4,3.9-3.4,5.5c-1,1.7-2,3-2.7,4.1
			c-1.5,2.3-2.4,3.6-2.4,3.6L68.6,770.2z"/>
	</g>
</g>
<ellipse transform="matrix(-0.9787 -0.2055 0.2055 -0.9787 410.046 795.2106)" fill="#FABA96" cx="246.3" cy="376.3" rx="100.6" ry="85"/>
<path fill="#DFA385" d="M100.6,403.2c-0.6-1.8-0.3-3.5,1-4.9c24.3-19,36.3-30.9,94.7-38.6c22.6-2.1,40.5,1.6,50,4.8
	c8.8,2.1,26.5,13.2,25.4,15.3c-0.6,1.2-38.2-8.8-39.9-8.5C187.1,377.6,130.5,387.4,100.6,403.2"/>
<path fill="#FABA96" d="M184.6,415.9c-40.7,4.4-77.3-6.9-91.3-11.9c-2.6-1.2-2.8-4.6-0.4-6.3c12.3-8.5,45.4-27.7,86.1-32.1
	c41.2-4.7,77.4,6.7,91.3,11.9c2.3,1.2,2.8,4.6,0.4,6.3C258.5,392.2,225.3,411.5,184.6,415.9"/>
<path fill="#DFA385" d="M91.3,400.9c33.4,5.4,47.6,10.6,104.8,2.5c41.3-6,63.7-12.7,63.7-12.7c-0.1,5-38.5,22.2-66,26.2
	c-35.3,2.9-70.7-1.4-99.9-11.7C92.2,404.3,91.2,402.8,91.3,400.9"/>
</svg>
