<?xml version="1.0" encoding="utf-8"?>
<!-- Generator: Adobe Illustrator 18.1.1, SVG Export Plug-In . SVG Version: 6.00 Build 0)  -->
<!DOCTYPE svg PUBLIC "-//W3C//DTD SVG 1.1//EN" "http://www.w3.org/Graphics/SVG/1.1/DTD/svg11.dtd">
<svg version="1.1" id="Layer_1" xmlns="http://www.w3.org/2000/svg" xmlns:xlink="http://www.w3.org/1999/xlink" x="0px" y="0px"
	 viewBox="0 0 720 576" enable-background="new 0 0 720 576" xml:space="preserve">
<g>
	<path fill="#004474" d="M391.2,353.7c-1.7-3.4-4.3-6.3-4.5-10.4c3.4-1.5,5.9,0.1,8.6,2.1c14,10.5,29.2,18.2,47,20.1
		c8.5,0.9,16.8-0.1,25-2.4c0.3,3,2.3,5.2,4.1,7.3c9,10.3,18.8,19.8,31.6,25.4c2.9,1.3,4.3,2.9,4.2,6.3c-0.3,7,4,12.6,7.1,18.4
		c7.3,13.4,15.3,26.6,19.9,41.3c4,12.5,13.1,16.9,25,17.1c10.4,0.2,20.9,2.2,31-2.5c1.6-0.8,3.6,0,5.4,0.2
		c5.6,0.7,11.2,1.5,16.7-0.9c2.8-1.2,5.5,0.7,8.3,0.5c5.1-0.4,6.5-1.9,5.8-6.9c-1.7-11.4-9.5-20-20.8-22.6
		c-6.9-1.6-13.7-3.1-17.8-9.7c-1.8-2.8-5.9-2.3-7.9-5c2.6-1.3,0.9-3.2,0.6-4.7c-6-27.9-22.5-46.7-49-56.9
		c-9.1-11.6-21.7-18.6-34.4-25.4c1.8-2.3,3.6-4.6,5.4-6.9c0.6,0.2,1.4,0.1,1.8,0.5c5.6,4.4,6.7,4.3,10.9-1.8
		c1.1-1.6,2.2-3.3,3.3-4.9c13.6,0.4,27.2-0.1,40.6-2.8c3.5-0.7,8.4-1.1,9-5.1c0.5-3.8-4.1-5.6-7.1-7.5c-7.4-4.8-15.5-8.4-23.4-12.2
		c-2.6-1.2-4.7-2.1-0.9-4.8c3.2-2.3,1.7-4.1-1.3-5.2c-1.3-0.5-3.5-0.1-3.6-1.9c-0.1-1.5,1.8-2.2,3-3.1c2.7-2.2,5.6-4.2,8.3-6.3
		c2.5-1.9,1.9-3.7-0.5-5c-2.8-1.5-6-1.7-9.1-1.9c-0.1-4.1,2.6-7.1,4.1-10.6c8.4-20.4,13.9-41.3,15.3-63.5c1.1-17.8,0.1-35.1-5.5-52
		c-5.4-16.6-26.4-28.1-43.5-24.1c-16.5,3.8-29.3,12.8-38.8,26.8c-4.6,6.7-9,13.5-12.5,20.9c-0.5,1.1-0.9,2.3-2.3,2.3
		c-1.8,0.1-2.2-1.5-2.5-2.7c-2-7.6-5-14.8-8.3-21.8c-6.3-13.3-13.2-26.4-26.4-34.2c-16.7-9.8-40.4-10.5-53.6,3.5
		c-6.1,6.5-9.2,14.6-9.9,23.4c-1.9,25.6,5,49.6,13.2,73.5c1.7,5,3.9,9.9,4.7,15.2c-1,1-2,2-3,3c-3.8,3.3-7.6,6.7-9.6,11.3
		c-2.3,5.3-5.7,5.7-10.7,4.4c-12.4-3.1-24.8-5.9-37.6-6.6c-1.8-0.1-3.9-0.5-4.9,1.5c-0.9,1.8,0,3.5,1.3,5
		c-5.8,0.8-11.5,1.6-17.3,2.4c-5.1-57.6-2.6-115.4-3.1-173.1c0-1.7,1-4.5-0.9-4.9c-2.2-0.5-4.9-0.2-7,1.6
		c-7.8,7.3-15,15.2-21.2,23.8c-12.1,16.8-21.2,35.3-29.2,54.3c-8.8,20.7-15,42.2-18.9,64.4c-2.7,15.5-5.1,31-6.7,46.7
		c-0.7,7.1-0.8,14.2-1.2,21.4c-4,3.8-8.1,7.7-12.1,11.5c-9.4,0.8-16.6,6.3-23.6,11.8c-19.3,15.2-28.1,36.1-31.3,59.9
		c-0.6,4.3-1.1,8.6-0.1,12.9c-6.8,16.7-17,31.6-24.4,48c-2,4.5-4.4,8.9-4,14.2c0.1,0.9-0.6,1.9-1.2,2.7c-6,9.8-7.9,20.7-8.4,31.9
		c-0.2,4.6,2.1,7.1,6.1,8.5c8.7,3,17.6,3.1,26.6,2.2c1.7-0.2,3.3-0.8,4.7,0.5c5.1,4.5,11.6,4.7,17.9,5c12,0.5,23.9,0.2,35.8-1.7
		c5.5-0.8,10.1,2.7,15.4,3.2c15.5,1.5,30.9,0.2,46.2-1.9c6.4-0.9,8.8-4.6,9-11.2c0.4-12.5-2.2-24.8-3-37.2
		c-0.6-10.7,2.3-20.3,9.1-28.7c14.5,2.1,28.6-0.3,42.6-3.7c2.1-0.5,4.1-1.4,6.3-1c6,3.8,12.1,7.5,18.1,11.4
		c6.4,4.2,12.4,9,17.9,14.3c1.7,1.6,2.6,3.4,2.1,5.7c-0.8,4.1,0.8,7.3,4.2,9.3c3.9,2.4,6.5,5.7,8,9.9c1.5,4.2,4.1,6.5,8.7,7
		c5.3,0.6,10.6,1.6,15.6-1.1c1.6-0.8,3.3-0.4,4.9,0c3.8,1,7.5,1.5,11.2-0.5c2-1.1,3.9,0.3,5.9,0.1c4.6-0.3,5.6-1.7,3.3-5.5
		c-4.2-6.9-8.8-13.7-13.4-20.4c-2.7-3.9-2.9-6.6,1.6-9.8c9.8-6.8,11.2-13.8,6.4-27.3c-0.9-2.7-1.8-5.3-2.7-8
		C404.7,383.1,398.8,368.2,391.2,353.7z"/>
	<path fill="#71A6D1" d="M214.4,271.1c6.6-14.8,16.4-27.7,27.1-39.9c3-3.5,5.7-3.7,9.4-1.4c9.7,6,18.8,12.6,25.5,22
		c2.5,3.5,5.3,4.2,8.9,1.9c5.8-0.8,11.5-1.6,17.3-2.3c7.6,6.8,16.2,12.1,24.9,17.2c3,1.8,6.1,3.2,6.3,7.5c0.1,1.9,1.9,3,3.2,4.3
		c0.8,0.8,2.1,1.4,1.8,2.8c-0.4,1.6-1.9,1.5-3.2,1.8c-10.2,2.8-20.6,5.3-30.4,9.4c-3.2,1.3-7.7,2.5-7.4,6.3c0.3,4.3,5,5.2,8.6,6.3
		c13,3.6,26.5,4.3,39.8,6c1.3,0.2,2.6,0.3,4,0.4c-0.6,1.9-1.3,3.8-1.8,5.7c-3.9,14.8-9.4,17.6-25.4,18.6c-12.8,0.8-25.4,1.6-37.6,6
		c-3.7,1.3-5.7,3.2-6.3,7.3c-2.9,21.5-9.9,41.9-17.4,62.2c-0.7,2-1.8,4-1.5,6.2c-6.8,8.4-9.8,18-9.1,28.7c0.7,12.4,3.3,24.7,3,37.2
		c-0.2,6.6-2.6,10.3-9,11.2c-15.3,2.1-30.7,3.4-46.2,1.9c-5.3-0.5-10-4-15.4-3.2c-11.9,1.8-23.8,2.2-35.8,1.7
		c-6.2-0.3-12.7-0.4-17.9-5c-1.5-1.3-3.1-0.6-4.7-0.5c-9,0.8-17.9,0.7-26.6-2.2c-4.1-1.4-6.3-3.9-6.1-8.5
		c0.5-11.3,2.4-22.1,8.4-31.9c0.5-0.8,1.2-1.8,1.2-2.7c-0.4-5.3,2-9.7,4-14.2c7.4-16.4,17.6-31.3,24.4-48
		c19.4-26.7,39.9-52.7,54.4-82.6c0.3-0.6,0.4-1.3,0.6-1.9c4-3.8,8.1-7.7,12.1-11.5C204.4,283.9,210.7,279.5,214.4,271.1z
		 M180.3,418.2c1.5,4.8,4.5,6.7,9.5,5.8c6.1-1,11.5-3.8,15.9-7.9c18.6-17.6,31.3-38.1,32.8-64.6c0.5-8.8,1.4-17.5-0.2-26.3
		c-1.8-9.9-6.4-12.3-15.6-7.8c-11.9,5.8-20.4,15.4-27.6,26.1c-11,16.4-16.3,34.7-17.1,54.4C178,404.8,178.3,411.5,180.3,418.2z"/>
	<path fill="#4C5F73" d="M533.2,276.2c-0.1-4.1,2.6-7.1,4.1-10.6c8.4-20.4,13.9-41.3,15.3-63.5c1.1-17.8,0.1-35.1-5.5-52
		c-5.4-16.6-26.4-28.1-43.5-24.1c-16.5,3.8-29.3,12.8-38.8,26.8c-4.6,6.7-9,13.5-12.5,20.9c-0.5,1.1-0.9,2.3-2.3,2.3
		c-1.8,0.1-2.2-1.5-2.5-2.7c-2-7.6-5-14.8-8.3-21.8c-6.3-13.3-13.2-26.4-26.4-34.2c-16.7-9.8-40.4-10.5-53.6,3.5
		c-6.1,6.5-9.2,14.6-9.9,23.4c-1.9,25.6,5,49.6,13.2,73.5c1.7,5,3.9,9.9,4.7,15.2c21.4-3.4,37.9,4.7,48.4,24.3
		c4.7,8.6,8.8,17.5,13.2,26.3c4.8-1.2,8,1.2,10.5,4.8c2.3,3.2,4.3,6.7,7.5,9.1c1.5-5.6,3.1-11.2,4.4-16.9c4.4-19.4,6.4-39,5.9-58.8
		c-0.1-3.7,0.9-5,4.5-3.3c13.7,6.2,25.2,14.9,32.1,28.7c8.7,17.3,10.5,36.2,12.5,55c3.2-1.5,6.1-3.7,9.9-2.8c1.9-2.4,4.3-4.2,7-5.7
		C524.2,286.4,528.9,281.4,533.2,276.2z"/>
	<path fill="#4B5F73" d="M197.2,287.9c7.2-4,13.5-8.5,17.2-16.8c6.6-14.8,16.4-27.7,27.1-39.9c3-3.5,5.7-3.7,9.4-1.4
		c9.7,6,18.8,12.6,25.5,22c2.5,3.5,5.3,4.2,8.9,1.9c-5.1-57.6-2.6-115.4-3.1-173.1c0-1.7,1-4.5-0.9-4.9c-2.2-0.5-4.9-0.2-7,1.6
		c-7.8,7.3-15,15.2-21.2,23.8c-12.1,16.8-21.2,35.3-29.2,54.3c-8.8,20.7-15,42.2-18.9,64.4c-2.7,15.5-5.1,31-6.7,46.7
		C197.7,273.7,197.6,280.8,197.2,287.9z"/>
	<path fill="#71A5D0" d="M506.2,302c-2-18.8-3.9-37.7-12.5-55c-6.9-13.8-18.4-22.5-32.1-28.7c-3.6-1.6-4.6-0.3-4.5,3.3
		c0.5,19.9-1.5,39.5-5.9,58.8c-1.3,5.7-2.9,11.2-4.4,16.9c0.4,4.2-1.3,7.9-3.7,11.1c-3,4.2-7.1,6.6-12.5,5.5c-5-1-6.6-5.2-7.8-9.4
		c-2.3-8.2,0.8-14.9,5.8-21.1c-4.4-8.8-8.5-17.7-13.2-26.3c-10.5-19.6-27-27.7-48.4-24.3c-1,1-2,2-3,3c23.3,14.2,31.7,35.9,30.8,62
		c-0.1,3.7,0.4,8.1-3.1,11.1c-1.3,1.2-0.3,2.8,0.4,4.1c4.7,3.4,7.8,7.9,10.1,13.2c2.8,6.1,7.1,7.3,13,4.1c2-1.1,3.9-2.5,5.7-3.9
		c1.3-1,2.5-1.7,4.1-1.2c16.4,4.9,34.2,6.7,45.9,21.6c0.3,0.3,0.9,0.4,1.4,0.5c7.5-1.9,14.3-5.1,19.8-10.8c3.5-3.7,5.8-3.3,8.2,0.4
		c0.6,0.4,1.2,0.7,1.7,1.1c0.6,0.2,1.4,0.1,1.8,0.5c5.6,4.4,6.7,4.3,10.9-1.8c1.1-1.6,2.2-3.3,3.3-4.9c0.3-2.7,1.7-5,2.7-7.4
		c4-10.1,4.9-20.4,2.1-30.9c-2.7,1.5-5.1,3.3-7,5.7c2.2,6.8,3.3,13.5-1.9,19.6c-2.3,2.8-5.1,5-9,3.5c-3.7-1.4-4.9-4.4-5-8.3
		C500,308.9,503.4,305.7,506.2,302z"/>
	<path fill="#D5E8E8" d="M502.2,338.1c-0.6-0.4-1.2-0.7-1.7-1.1c-8,6.7-16.4,12.7-26.3,16.3c-0.4,0.2-0.8,0.4-1.3,0.5l-0.3,0l-0.3,0
		c-9.2,3.6-18.8,4.3-28.4,2.9c-20.6-3.1-35.8-15.4-48.9-30.7c-1.7-2-2.9-4.5-5.9-5c-1.9,2.1-3.8,4.2-5.8,6.2
		c-4.5,4.3-6.9,4.4-11.7,0.9c-3.9-2.8-7.6-5.9-10.3-10c-2.7-4-6.5-5.6-11.2-4.5c-0.6,1.9-1.3,3.8-1.8,5.7
		c-3.9,14.8-9.4,17.6-25.4,18.6c-12.8,0.8-25.4,1.6-37.6,6c-3.7,1.3-5.7,3.2-6.3,7.3c-2.9,21.5-9.9,41.9-17.4,62.2
		c-0.7,2-1.8,4-1.5,6.2c14.5,2.1,28.6-0.3,42.6-3.7c2.1-0.5,4.1-1.4,6.3-1c0.3-2,2.2-1.8,3.5-2.3c9.3-3.6,17.6-8.4,24.5-15.7
		c9.9-10.5,17.5-22.5,24.2-35.1c3.9-7.2,7.6-14.1,16.9-14.9c2.4-2.3,5.5-2.6,8.5-3.4c3.4-1.5,5.9,0.1,8.6,2.1
		c14,10.5,29.2,18.2,47,20.1c8.5,0.9,16.8-0.1,25-2.4c5.6-2.1,11.1-4.3,15.9-7.7c4.7-3.3,9.2-6.9,13.7-10.4
		C498.7,342.7,500.5,340.4,502.2,338.1z"/>
	<path fill="#70A6D1" d="M496.9,345c-4.6,3.5-9.1,7.1-13.7,10.4c-4.9,3.5-10.4,5.7-15.9,7.7c0.3,3,2.3,5.2,4.1,7.3
		c9,10.3,18.8,19.8,31.6,25.4c2.9,1.3,4.3,2.9,4.2,6.3c-0.3,7,4,12.6,7.1,18.4c7.3,13.4,15.3,26.6,19.9,41.3
		c4,12.5,13.1,16.9,25,17.1c10.4,0.2,20.9,2.2,31-2.5c1.6-0.8,3.6,0,5.4,0.2c5.6,0.7,11.2,1.5,16.7-0.9c2.8-1.2,5.5,0.7,8.3,0.5
		c5.1-0.4,6.5-1.9,5.8-6.9c-1.7-11.4-9.5-20-20.8-22.6c-6.9-1.6-13.7-3.1-17.8-9.7c-1.8-2.8-5.9-2.3-7.9-5c-1.5-0.1-3-0.2-4.3-1
		c-10.5-6.2-20.7-12.7-28.1-22.6c-8.4-11.4-14-24-16.1-38.1C522.1,358.8,509.6,351.8,496.9,345z"/>
	<path fill="#71A6D1" d="M378.2,346.7c-9.3,0.8-13.1,7.7-16.9,14.9c-6.8,12.6-14.3,24.7-24.2,35.1c-6.9,7.3-15.3,12.1-24.5,15.7
		c-1.3,0.5-3.2,0.3-3.5,2.3c6,3.8,12.1,7.5,18.1,11.4c6.4,4.2,12.4,9,17.9,14.3c1.7,1.6,2.6,3.4,2.1,5.7c-0.8,4.1,0.8,7.3,4.2,9.3
		c3.9,2.4,6.5,5.7,8,9.9c1.5,4.2,4.1,6.5,8.7,7c5.3,0.6,10.6,1.6,15.6-1.1c1.6-0.8,3.3-0.4,4.9,0c3.8,1,7.5,1.5,11.2-0.5
		c2-1.1,3.9,0.3,5.9,0.1c4.6-0.3,5.6-1.7,3.3-5.5c-4.2-6.9-8.8-13.7-13.4-20.4c-2.7-3.9-2.9-6.6,1.6-9.8c9.8-6.8,11.2-13.8,6.4-27.3
		c-0.9-2.7-1.8-5.3-2.7-8c-1.6-1.1-2.1-2.9-2.9-4.5C390.1,379.7,384.1,363.2,378.2,346.7z"/>
	<path fill="#E6AA7C" d="M350.2,313.5c4.8-1,8.6,0.6,11.2,4.5c2.8,4.1,6.4,7.2,10.3,10c4.9,3.5,7.3,3.4,11.7-0.9
		c2-1.9,3.9-4.1,5.8-6.2c1.1-2.6,3-4.9,3-7.9c-0.7-1.3-1.8-2.9-0.4-4.1c3.5-3.1,3-7.5,3.1-11.1c0.9-26.1-7.5-47.8-30.8-62
		c-3.8,3.3-7.6,6.7-9.6,11.3c-2.3,5.3-5.7,5.7-10.7,4.4c-12.4-3.1-24.8-5.9-37.6-6.6c-1.8-0.1-3.9-0.5-4.9,1.5c-0.9,1.8,0,3.5,1.3,5
		c7.6,6.8,16.2,12.1,24.9,17.2c3,1.8,6.1,3.2,6.3,7.5c0.1,1.9,1.9,3,3.2,4.3c0.8,0.8,2.1,1.4,1.8,2.8c-0.4,1.6-1.9,1.5-3.2,1.8
		c-10.2,2.8-20.6,5.3-30.4,9.4c-3.2,1.3-7.7,2.5-7.4,6.3c0.3,4.3,5,5.2,8.6,6.3c13,3.6,26.5,4.3,39.8,6
		C347.6,313.2,348.9,313.3,350.2,313.5z"/>
	<path fill="#E3A97C" d="M130.1,383.9c19.4-26.7,39.9-52.7,54.4-82.6c0.3-0.6,0.4-1.3,0.6-1.9c-9.4,0.8-16.6,6.3-23.6,11.8
		c-19.3,15.2-28.1,36.1-31.3,59.9C129.6,375.3,129.1,379.6,130.1,383.9z"/>
	<path fill="#E0A77B" d="M523.1,293.5c2.8,10.5,2,20.9-2.1,30.9c-1,2.5-2.4,4.7-2.7,7.4c13.6,0.4,27.2-0.1,40.6-2.8
		c3.5-0.7,8.4-1.1,9-5.1c0.5-3.8-4.1-5.6-7.1-7.5c-7.4-4.8-15.5-8.4-23.4-12.2c-2.6-1.2-4.7-2.1-0.9-4.8c3.2-2.3,1.7-4.1-1.3-5.2
		c-1.3-0.5-3.5-0.1-3.6-1.9c-0.1-1.5,1.8-2.2,3-3.1c2.7-2.2,5.6-4.2,8.3-6.3c2.5-1.9,1.9-3.7-0.5-5c-2.8-1.5-6-1.7-9.1-1.9
		C528.9,281.4,524.2,286.4,523.1,293.5z"/>
	<path fill="#E3A97C" d="M531.3,370.4c2,14.1,7.7,26.7,16.1,38.1c7.3,9.9,17.6,16.4,28.1,22.6c1.3,0.8,2.8,0.9,4.3,1
		c2.6-1.3,0.9-3.2,0.6-4.7C574.3,399.4,557.8,380.6,531.3,370.4z"/>
	<path fill="#E0A77B" d="M378.2,346.7c5.8,16.5,11.9,33,19.7,48.7c0.8,1.6,1.4,3.4,2.9,4.5c3.9-16.9-2.1-31.7-9.6-46.2
		c-1.7-3.4-4.3-6.3-4.5-10.4C383.7,344.1,380.6,344.5,378.2,346.7z"/>
	<path fill="#E6AA7C" d="M178,397.9c0,6.9,0.3,13.7,2.3,20.3c1.5,4.8,4.5,6.7,9.5,5.8c6.1-1,11.5-3.8,15.9-7.9
		c18.6-17.6,31.3-38.1,32.8-64.6c0.5-8.8,1.4-17.5-0.2-26.3c-1.8-9.9-6.4-12.3-15.6-7.8c-11.9,5.8-20.4,15.4-27.6,26.1
		C184,359.9,178.8,378.2,178,397.9z"/>
	<path fill="#E3A97C" d="M428.8,283.4c-5.1,6.2-8.2,12.9-5.8,21.1c1.2,4.2,2.8,8.4,7.8,9.4c5.4,1.1,9.5-1.3,12.5-5.5
		c2.3-3.2,4.1-6.9,3.7-11.1c-3.2-2.4-5.3-5.9-7.5-9.1C436.7,284.6,433.5,282.3,428.8,283.4z"/>
	<path fill="#E3A97C" d="M506.2,302c-2.8,3.6-6.1,6.9-6,12.1c0.1,3.8,1.3,6.9,5,8.3c3.8,1.4,6.6-0.8,9-3.5
		c5.1-6.1,4.1-12.8,1.9-19.6C512.3,298.3,509.3,300.6,506.2,302z"/>
	<path fill="#C7ADC1" d="M392.3,313.1c0,3-1.9,5.3-3,7.9c3,0.5,4.2,3,5.9,5c13.1,15.3,28.2,27.6,48.9,30.7
		c9.5,1.4,19.2,0.8,28.4-2.9c0-2.1,0.1-4.3,0.1-6.4c-0.5-0.2-1.1-0.2-1.4-0.5c-11.7-14.9-29.5-16.6-45.9-21.6
		c-1.6-0.5-2.8,0.2-4.1,1.2c-1.8,1.4-3.7,2.8-5.7,3.9c-5.9,3.3-10.2,2.1-13-4.1C400,321.1,396.9,316.5,392.3,313.1z"/>
	<path fill="#83536D" d="M472.5,347.4c0,2.1-0.1,4.3-0.1,6.4l0.3,0c0,0,0.3,0,0.3,0c0.4-0.2,0.8-0.4,1.3-0.5
		c9.9-3.6,18.3-9.6,26.3-16.3c-2.4-3.7-4.6-4.1-8.2-0.4C486.8,342.3,480.1,345.5,472.5,347.4z"/>
	<path fill="#C7ADC1" d="M474.2,353.3c-0.4,0.2-0.8,0.4-1.3,0.5C473.4,353.7,473.8,353.5,474.2,353.3z"/>
</g>
</svg>
